HIERARCHY
ROOT Hips
{
	OFFSET -0.001795 -0.223333 0.028219
	CHANNELS 6 Xposition Yposition Zposition Zrotation Yrotation Xrotation 
	JOINT LeftUpLeg
	{
		OFFSET 0.069520 -0.091406 -0.006815
		CHANNELS 3 Zrotation Yrotation Xrotation
		JOINT LeftLeg
		{
			OFFSET 0.034277 -0.375199 -0.004496
			CHANNELS 3 Zrotation Yrotation Xrotation
			JOINT LeftFoot
			{
				OFFSET -0.013596 -0.397961 -0.043693
				CHANNELS 3 Zrotation Yrotation Xrotation
				JOINT LeftToe
				{
					OFFSET 0.026358 -0.055791 0.119288
					CHANNELS 3 Zrotation Yrotation Xrotation
					End Site
					{
						OFFSET 0.000000 0.000000 0.000000
					}
				}
			}
		}
	}
	JOINT RightUpLeg
	{
		OFFSET -0.067670 -0.090522 -0.004320
		CHANNELS 3 Zrotation Yrotation Xrotation
		JOINT RightLeg
		{
			OFFSET -0.038290 -0.382569 -0.008850
			CHANNELS 3 Zrotation Yrotation Xrotation
			JOINT RightFoot
			{
				OFFSET 0.015774 -0.398415 -0.042312
				CHANNELS 3 Zrotation Yrotation Xrotation
				JOINT RightToe
				{
					OFFSET -0.025372 -0.048144 0.123348
					CHANNELS 3 Zrotation Yrotation Xrotation
					End Site
					{
						OFFSET 0.000000 0.000000 0.000000
					}
				}
			}
		}
	}
	JOINT Spine
	{
		OFFSET -0.002533 0.108963 -0.026696
		CHANNELS 3 Zrotation Yrotation Xrotation
		JOINT Spine1
		{
			OFFSET 0.005487 0.135180 0.001092
			CHANNELS 3 Zrotation Yrotation Xrotation
			JOINT Spine2
			{
				OFFSET 0.001457 0.052922 0.025425
				CHANNELS 3 Zrotation Yrotation Xrotation
				JOINT Neck
				{
					OFFSET -0.002778 0.213870 -0.042857
					CHANNELS 3 Zrotation Yrotation Xrotation
					JOINT Head
					{
						OFFSET 0.005152 0.064970 0.051349
						CHANNELS 3 Zrotation Yrotation Xrotation
						End Site
						{
							OFFSET 0.000000 0.000000 0.000000
						}
					}
				}
				JOINT LeftShoulder
				{
					OFFSET 0.078845 0.121749 -0.034090
					CHANNELS 3 Zrotation Yrotation Xrotation
					JOINT LeftArm
					{
						OFFSET 0.090977 0.030469 -0.008868
						CHANNELS 3 Zrotation Yrotation Xrotation
						JOINT LeftForeArm
						{
							OFFSET 0.259612 -0.012772 -0.027456
							CHANNELS 3 Zrotation Yrotation Xrotation
							JOINT LeftHand
							{
								OFFSET 0.249234 0.008986 -0.001171
								CHANNELS 3 Zrotation Yrotation Xrotation
								End Site
								{
									OFFSET 0.000000 0.000000 0.000000
								}
							}
						}
					}
				}
				JOINT RightShoulder
				{
					OFFSET -0.081759 0.118833 -0.038615
					CHANNELS 3 Zrotation Yrotation Xrotation
					JOINT RightArm
					{
						OFFSET -0.096012 0.032551 -0.009143
						CHANNELS 3 Zrotation Yrotation Xrotation
						JOINT RightForeArm
						{
							OFFSET -0.253742 -0.013329 -0.021401
							CHANNELS 3 Zrotation Yrotation Xrotation
							JOINT RightHand
							{
								OFFSET -0.255298 0.007772 -0.005559
								CHANNELS 3 Zrotation Yrotation Xrotation
								End Site
								{
									OFFSET 0.000000 0.000000 0.000000
								}
							}
						}
					}
				}
			}
		}
	}
}
MOTION
Frames: 11
Frame Time: 0.050000
0.000000 0.973604 0.000000 -4.147110 1.099859 4.504819 0.484652 1.216187 14.588056 2.968550 -1.414386 17.146196 -2.741241 6.411435 30.928307 0.000000 0.000000 0.000000 7.889050 4.450282 -27.664675 2.269549 0.075566 18.326058 -3.910178 -14.034288 25.563491 0.000000 0.000000 0.000000 2.187745 -0.559340 8.211830 6.009566 -3.236258 4.105293 0.522185 -18.604363 -5.052402 -4.808936 4.453202 3.302288 0.000000 0.000000 0.000000 -15.584009 -11.534302 8.245743 -21.233154 -7.591168 -2.036052 -151.398424 -80.202486 158.061518 0.000000 0.000000 0.000000 10.215699 -4.816338 -5.299774 19.030663 -34.919701 -6.262751 83.217013 30.137443 21.371147 0.000000 0.000000 0.000000 
-0.000596 0.964464 0.010789 -3.477965 0.518141 4.008205 1.848181 0.742166 10.616359 0.530511 -1.480815 33.253842 0.000538 7.679191 22.879902 0.000000 0.000000 0.000000 9.276933 4.275136 -24.866123 2.509494 0.131562 24.079975 -6.310488 -17.424490 24.086435 0.000000 0.000000 0.000000 1.214978 -0.336344 5.902044 5.834429 -3.434837 7.117497 1.957691 -16.330507 -6.552782 -7.116078 5.767974 0.050679 0.000000 0.000000 0.000000 -17.084868 -6.242348 5.184281 -25.433132 -5.655612 -2.557042 -111.975286 -71.548672 105.182228 0.000000 0.000000 0.000000 6.130005 -0.953154 -2.301787 26.918564 -35.061175 -9.357408 85.979793 30.739972 22.353770 0.000000 0.000000 0.000000 
-0.000865 0.943611 0.017076 -3.091219 -1.070257 1.250896 2.943222 0.180463 3.314898 -0.766954 -1.255149 53.585032 1.362390 8.229893 17.724123 0.000000 0.000000 0.000000 11.171723 3.866153 -20.483200 1.052459 0.955399 30.078099 -8.540471 -20.715826 27.746565 0.000000 0.000000 0.000000 0.315398 -0.364602 8.180118 5.357551 -3.761067 14.221584 3.675442 -10.678036 -11.802718 -5.102366 3.706990 -4.960016 0.000000 0.000000 0.000000 -23.940961 -5.016290 3.788226 -26.451269 4.689054 -3.907203 -88.373750 -65.064908 70.670855 0.000000 0.000000 0.000000 8.561313 1.367939 -1.748657 35.591368 -28.287559 -10.065650 88.269959 41.949333 36.113376 0.000000 0.000000 0.000000 
-0.000436 0.923411 0.017380 -2.262195 -4.660832 -0.244630 3.551378 -0.404962 -6.755317 -4.630544 3.601801 69.499930 6.311308 14.617338 11.628212 0.000000 0.000000 0.000000 11.445850 2.699362 -14.375070 -0.857237 1.800595 26.673413 -9.877460 -23.030042 23.665697 0.000000 0.000000 0.000000 -0.797660 -0.339598 11.106865 3.641522 -2.412211 15.623586 2.307279 -2.204338 -12.075693 -6.041603 4.278633 -5.698197 0.000000 0.000000 0.000000 -26.273612 -2.151216 -0.570765 -24.000672 13.600505 -4.376740 -76.571422 -51.571139 45.386194 0.000000 0.000000 0.000000 16.497866 5.062854 -0.491187 36.485434 -17.140738 -6.678109 90.732637 55.531473 55.269379 0.000000 0.000000 0.000000 
0.001364 0.925841 0.019052 -0.455358 -5.625633 -1.504474 2.218950 -1.237799 -19.674659 -5.065917 5.119759 76.163618 7.519536 16.364729 9.820261 0.000000 0.000000 0.000000 10.198692 0.089739 -1.768243 -3.555061 1.197566 10.556436 -5.973943 -15.379824 4.499493 0.000000 0.000000 0.000000 -1.596138 -0.263203 12.418478 0.755727 -0.426398 14.645317 2.147211 5.447956 -11.660391 -3.443053 2.454122 -2.059060 0.000000 0.000000 0.000000 -27.849135 1.130255 -5.162426 -20.206217 24.148021 -4.672013 -72.494536 -42.610756 33.809735 0.000000 0.000000 0.000000 16.055273 6.029490 1.621737 39.643515 -5.669706 -4.281830 103.630388 63.984052 79.748343 0.000000 0.000000 0.000000 
0.003352 0.946965 0.026925 2.276611 -6.361351 -0.749992 -1.210308 -2.459875 -28.378355 -5.650130 5.199927 67.796116 6.034517 14.312883 14.370480 0.000000 0.000000 0.000000 6.752999 -1.480224 8.710458 -4.809085 0.455514 -0.128008 -2.051956 -6.873244 4.064791 0.000000 0.000000 0.000000 -3.492651 -0.017152 10.188232 -3.107249 2.134677 14.058048 2.642736 11.468087 -13.399367 -2.280665 0.900489 3.196608 0.000000 0.000000 0.000000 -22.248466 2.386827 -6.228566 -15.284044 32.374690 -4.056501 -77.589899 -34.401039 29.028617 0.000000 0.000000 0.000000 13.352541 6.021584 2.642634 43.185753 -0.646753 -3.096825 122.313913 62.835402 102.488708 0.000000 0.000000 0.000000 
0.004356 0.972535 0.037933 3.126042 -6.759117 1.021227 -3.965386 -3.379302 -31.542610 -4.207110 2.369907 46.542320 5.471517 13.877094 21.891746 0.000000 0.000000 0.000000 4.319365 -1.964052 15.014748 -4.871329 0.481972 0.174686 0.299197 -2.866323 6.378086 0.000000 0.000000 0.000000 -4.027272 0.050521 7.151535 -4.769563 3.245568 14.172158 0.722554 15.361966 -15.138252 1.134449 -2.882673 7.600449 0.000000 0.000000 0.000000 -16.380496 4.067851 -6.236028 -13.146360 37.301885 -4.055113 -80.569305 -28.759157 24.632814 0.000000 0.000000 0.000000 12.760006 6.164837 3.466120 42.850347 1.599940 -2.376263 132.124601 59.530008 114.559007 0.000000 0.000000 0.000000 
0.003433 0.988098 0.049786 3.071012 -4.422526 1.792658 -6.074800 -3.815332 -28.741873 -2.606547 0.418014 27.691031 1.716217 9.869601 26.711410 0.000000 0.000000 0.000000 3.098161 -2.173440 17.955535 -3.652189 1.333086 12.184040 -0.164306 -3.830903 6.843779 0.000000 0.000000 0.000000 -3.094815 -0.000595 4.035727 -7.115807 4.939791 18.173322 2.135366 14.638779 -20.149011 0.458625 -3.047285 10.484119 0.000000 0.000000 0.000000 -14.078146 3.666396 -5.324412 -11.027723 42.289011 -3.624695 -85.202540 -25.611601 24.241485 0.000000 0.000000 0.000000 10.392518 6.685336 3.299651 44.070036 0.049134 -2.293756 132.711014 57.863851 112.501827 0.000000 0.000000 0.000000 
0.001484 0.976911 0.060179 1.671703 -3.108719 1.235341 -6.532740 -3.456981 -24.553068 -2.179055 0.117355 24.121398 0.511040 9.065027 29.111522 0.000000 0.000000 0.000000 2.707417 -2.091020 17.286247 0.217691 1.904936 36.233536 -2.737319 -10.258714 11.503771 0.000000 0.000000 0.000000 -2.094065 -0.036593 2.891904 -4.528884 3.224826 22.516865 -1.858454 13.791283 -23.652438 1.367182 -4.346124 11.685900 0.000000 0.000000 0.000000 -11.260337 3.344473 -4.479172 -17.121633 43.604521 -6.691640 -87.711730 -29.163918 28.135685 0.000000 0.000000 0.000000 11.966601 4.630724 2.550375 43.001862 -3.145376 -3.124290 124.246832 52.490269 94.912237 0.000000 0.000000 0.000000 
0.000901 0.939405 0.068589 0.861146 -1.554890 -0.968516 -8.323213 -3.053558 -19.060463 -0.705520 -0.609344 29.499839 2.851021 12.215071 30.122158 0.000000 0.000000 0.000000 0.591113 -1.364697 13.241330 5.656103 -0.660576 64.868474 -6.313987 -17.517023 23.942197 0.000000 0.000000 0.000000 -1.626813 -0.078136 3.293944 -2.457719 1.476948 25.696718 -3.273008 11.234655 -23.905616 2.255861 -4.098428 8.606595 0.000000 0.000000 0.000000 -16.321114 3.285976 -5.935346 -21.624956 37.845715 -7.261910 -88.755545 -37.279426 36.859070 0.000000 0.000000 0.000000 14.239278 3.191137 1.653109 39.977550 -8.923815 -4.603335 111.036725 49.039705 73.672206 0.000000 0.000000 0.000000 
-0.000176 0.899406 0.068432 1.277223 0.834356 -4.072969 -11.286302 -2.580271 -13.514538 1.715760 -1.969592 32.375498 6.709196 16.684534 27.736728 0.000000 0.000000 0.000000 -2.772382 -0.443381 6.258726 7.379344 -4.483308 89.689787 -5.102558 -15.077027 16.610569 0.000000 0.000000 0.000000 -1.809380 -0.214793 8.374725 -2.212484 0.843006 26.106592 -1.644887 5.346948 -24.641690 1.008529 -1.775680 4.792406 0.000000 0.000000 0.000000 -24.973157 2.770167 -6.976041 -24.810833 26.882751 -5.922429 -91.294032 -45.128082 47.659057 0.000000 0.000000 0.000000 16.318653 0.673324 -0.889947 37.888449 -15.689948 -5.951666 92.740749 45.133447 49.185373 0.000000 0.000000 0.000000 
